HIERARCHY
ROOT Hips
{
	OFFSET -0.179506 -22.333345 2.821913
	CHANNELS 6 Xposition Yposition Zposition Zrotation Yrotation Xrotation 
	JOINT LeftUpLeg
	{
		OFFSET 6.951974 -9.140623 -0.681533
		CHANNELS 3 Zrotation Yrotation Xrotation
		JOINT LeftLeg
		{
			OFFSET 3.427654 -37.519855 -0.449580
			CHANNELS 3 Zrotation Yrotation Xrotation
			JOINT LeftFoot
			{
				OFFSET -1.359570 -39.796059 -4.369333
				CHANNELS 3 Zrotation Yrotation Xrotation
				JOINT LeftToe
				{
					OFFSET 2.635814 -5.579078 11.928840
					CHANNELS 3 Zrotation Yrotation Xrotation
					End Site
					{
						OFFSET 0.000000 0.000000 0.000000
					}
				}
			}
		}
	}
	JOINT RightUpLeg
	{
		OFFSET -6.767048 -9.052170 -0.431982
		CHANNELS 3 Zrotation Yrotation Xrotation
		JOINT RightLeg
		{
			OFFSET -3.829005 -38.256897 -0.885003
			CHANNELS 3 Zrotation Yrotation Xrotation
			JOINT RightFoot
			{
				OFFSET 1.577377 -39.841461 -4.231180
				CHANNELS 3 Zrotation Yrotation Xrotation
				JOINT RightToe
				{
					OFFSET -2.537174 -4.814398 12.334795
					CHANNELS 3 Zrotation Yrotation Xrotation
					End Site
					{
						OFFSET 0.000000 0.000000 0.000000
					}
				}
			}
		}
	}
	JOINT Spine
	{
		OFFSET -0.253288 10.896323 -2.669631
		CHANNELS 3 Zrotation Yrotation Xrotation
		JOINT Spine1
		{
			OFFSET 0.548704 13.518043 0.109247
			CHANNELS 3 Zrotation Yrotation Xrotation
			JOINT Spine2
			{
				OFFSET 0.145701 5.292222 2.542457
				CHANNELS 3 Zrotation Yrotation Xrotation
				JOINT Neck
				{
					OFFSET -0.277840 21.387037 -4.285703
					CHANNELS 3 Zrotation Yrotation Xrotation
					JOINT Head
					{
						OFFSET 0.515184 6.496960 5.134897
						CHANNELS 3 Zrotation Yrotation Xrotation
						End Site
						{
							OFFSET 0.000000 0.000000 0.000000
						}
					}
				}
				JOINT LeftShoulder
				{
					OFFSET 7.884473 12.174932 -3.408961
					CHANNELS 3 Zrotation Yrotation Xrotation
					JOINT LeftArm
					{
						OFFSET 9.097692 3.046888 -0.886815
						CHANNELS 3 Zrotation Yrotation Xrotation
						JOINT LeftForeArm
						{
							OFFSET 25.961220 -1.277207 -2.745643
							CHANNELS 3 Zrotation Yrotation Xrotation
							JOINT LeftHand
							{
								OFFSET 24.923361 0.898606 -0.117091
								CHANNELS 3 Zrotation Yrotation Xrotation
								End Site
								{
									OFFSET 0.000000 0.000000 0.000000
								}
							}
						}
					}
				}
				JOINT RightShoulder
				{
					OFFSET -8.175920 11.883285 -3.861528
					CHANNELS 3 Zrotation Yrotation Xrotation
					JOINT RightArm
					{
						OFFSET -9.601238 3.255117 -0.914307
						CHANNELS 3 Zrotation Yrotation Xrotation
						JOINT RightForeArm
						{
							OFFSET -25.374195 -1.332924 -2.140099
							CHANNELS 3 Zrotation Yrotation Xrotation
							JOINT RightHand
							{
								OFFSET -25.529810 0.777228 -0.555919
								CHANNELS 3 Zrotation Yrotation Xrotation
								End Site
								{
									OFFSET 0.000000 0.000000 0.000000
								}
							}
						}
					}
				}
			}
		}
	}
}
MOTION
Frames: 11
Frame Time: 0.033333
-0.109950 48.270691 1.410487 112.941274 -53.477082 148.717963 2.601489 -1.877167 2.256027 -2.186145 -11.999629 15.763817 -10.135728 6.412848 16.029284 0.736482 0.024828 0.555440 -3.902402 -2.316152 -1.186312 -3.149808 1.653432 20.874672 9.034634 -4.402511 15.623238 0.937892 -0.991130 0.447660 -1.622261 -1.514906 12.065613 -0.754102 -2.292743 1.840314 2.236336 -3.135913 1.331890 0.463905 -6.620201 -3.283136 6.888270 -0.930875 -3.279356 -16.130373 3.395846 8.995700 -51.798203 1.545508 9.044199 -6.994134 -23.541974 13.146136 -10.308537 -10.157396 -6.973744 3.701005 0.458709 0.357309 62.836872 -7.402816 13.652416 -6.233354 27.774800 3.211001 13.929188 3.791949 -11.626052 
-0.065591 48.298988 1.048115 112.336872 -52.780501 149.360943 2.632974 -1.864148 2.293337 -2.164619 -11.957333 15.828611 -9.904375 6.678658 15.875284 0.770249 0.013250 0.515061 -3.851500 -2.250809 -1.479179 -3.085079 1.557862 21.135391 9.094878 -4.123435 15.065088 0.791430 -0.954580 0.452747 -1.631249 -1.570496 12.007482 -0.691796 -2.395592 1.830454 2.160554 -3.221348 1.251168 0.516933 -6.521971 -3.219518 6.751449 -0.913564 -3.433385 -16.396932 3.643459 9.215398 -51.519608 1.672288 8.919948 -6.840001 -23.148621 12.747434 -10.204586 -10.016210 -6.811116 3.983561 0.438159 0.198821 62.897675 -7.318733 13.580752 -6.696183 27.823882 2.688387 13.473454 3.743710 -11.759113 
-0.023718 48.328979 0.749726 111.658395 -52.256330 150.040546 2.588560 -1.773194 2.343239 -2.201322 -11.810532 15.786125 -9.807469 6.854034 15.892600 0.779300 0.030879 0.507824 -3.907729 -2.178460 -1.688924 -3.052297 1.633624 21.273291 9.100387 -4.038026 14.587070 0.662631 -0.924879 0.485878 -1.622929 -1.653050 11.966739 -0.714295 -2.499831 1.797510 2.075854 -3.289544 1.270114 0.572052 -6.557411 -3.274329 6.638567 -0.857285 -3.615872 -16.474294 3.711714 9.276928 -51.365292 1.624992 8.739045 -6.723572 -22.584594 12.512659 -10.512748 -9.945497 -6.820035 4.107751 0.413367 -0.015818 63.166006 -7.167776 13.457952 -7.199532 27.633908 2.219281 13.373076 3.714572 -11.727989 
0.025483 48.358871 0.403003 110.906601 -51.698149 150.710502 2.480197 -1.775752 2.374703 -2.282110 -11.725543 15.963673 -9.666468 7.117089 15.947197 0.789653 0.039764 0.489554 -3.956105 -2.022883 -2.036255 -3.067910 1.634633 21.805115 9.068209 -3.930337 14.132883 0.577923 -0.870329 0.471338 -1.621126 -1.757131 11.935180 -0.673592 -2.602250 1.849415 1.974898 -3.328243 1.239159 0.554953 -6.285861 -3.265633 6.499797 -0.718261 -3.855647 -16.578857 3.782887 9.335124 -50.983114 1.558166 8.614922 -6.628928 -22.532233 12.200027 -10.690921 -9.817838 -6.506745 4.312115 0.351080 -0.192950 63.243278 -7.136863 13.350810 -7.619643 27.858133 1.646006 13.226931 3.631051 -11.729691 
0.017790 48.390884 0.151900 110.425632 -50.893959 151.240589 2.542461 -1.733908 2.383493 -2.274521 -11.526398 16.056086 -9.518389 7.424899 15.707086 0.812314 0.063015 0.481718 -3.898977 -1.925545 -2.191449 -2.972288 1.649710 21.760235 9.198219 -3.713654 13.522426 0.424207 -0.825392 0.466879 -1.603638 -1.842166 11.784230 -0.675849 -2.695253 1.881616 1.934943 -3.380224 1.220350 0.519593 -6.029492 -3.199580 6.350407 -0.583908 -3.888226 -16.619234 3.656375 9.278461 -50.569398 1.216115 8.306247 -6.228453 -22.433847 11.636147 -11.016300 -9.641942 -6.178682 4.520981 0.433017 -0.379539 63.320122 -6.905444 13.287146 -8.111284 27.695949 1.176382 13.123557 3.558552 -11.663056 
0.024534 48.425148 -0.176607 109.719872 -49.980279 151.829431 2.504295 -1.740675 2.474164 -2.339783 -11.396881 16.299189 -9.291463 7.778825 15.641267 0.866175 0.103527 0.495579 -3.916728 -1.821413 -2.486411 -2.935700 1.543392 22.194007 9.219334 -3.354376 12.925698 0.409077 -0.775203 0.385236 -1.619455 -1.946799 11.682686 -0.661236 -2.820591 1.978833 1.869126 -3.451402 1.173810 0.436988 -5.764399 -3.129039 6.124113 -0.573505 -3.970385 -16.476747 3.395852 9.173755 -49.981010 0.646932 7.980424 -5.927334 -22.569046 11.104285 -11.219457 -9.422452 -5.892077 4.718178 0.525118 -0.634188 63.387887 -6.778913 13.182928 -8.561115 27.844922 0.839089 13.200863 3.519573 -11.426048 
0.070364 48.462418 -0.401180 109.124544 -49.787602 152.056016 2.357673 -1.787478 2.637658 -2.579497 -11.201441 16.667865 -9.283730 7.840052 15.809203 0.932158 0.139125 0.462396 -4.050153 -1.651188 -2.427228 -2.955717 1.703241 22.651112 8.944740 -3.567615 12.658156 0.247076 -0.785707 0.352026 -1.640091 -2.034302 11.613258 -0.587662 -2.918799 2.095639 1.725398 -3.503088 1.123668 0.306371 -5.669322 -3.189840 5.962781 -0.498839 -4.100931 -16.221699 3.097874 9.050453 -49.380854 0.109296 7.778837 -5.795202 -22.820183 10.846763 -11.415850 -9.270367 -5.905665 4.905317 0.444306 -0.633766 63.398992 -6.786644 13.112731 -8.913078 28.092685 0.732307 13.164089 3.333219 -11.176227 
0.167348 48.500465 -0.972427 108.373670 -49.488603 152.605782 2.317837 -1.646883 2.948370 -2.710728 -11.220069 16.648537 -9.469204 7.922725 15.863780 0.985896 0.124412 0.427586 -4.085290 -1.520261 -2.407616 -2.965060 1.875150 23.046100 8.634744 -3.690537 11.982215 0.175570 -0.596626 0.342941 -1.640773 -2.219591 11.393372 -0.614062 -3.062560 2.216571 1.683724 -3.502688 1.168655 0.029743 -4.930407 -2.967241 5.716113 0.071937 -4.234097 -15.903128 2.756199 8.927226 -48.523876 -0.389215 7.279517 -5.693536 -23.308847 10.490299 -11.914469 -9.102358 -5.476493 5.045759 0.410479 -0.601964 63.731440 -6.794519 12.846092 -9.334330 28.059246 0.339501 13.256492 3.316578 -10.826234 
0.141888 48.543907 -1.603748 107.563167 -48.223788 153.537215 2.348210 -1.553395 2.948693 -2.703197 -11.064914 16.897288 -9.061023 8.304271 15.522243 0.947057 0.126450 0.406352 -3.957582 -1.381454 -2.824107 -2.946987 1.870062 23.355254 8.664139 -3.154895 10.821965 0.286305 -0.504994 0.450166 -1.612137 -2.333035 11.205452 -0.598628 -3.292648 2.536184 1.562287 -3.524083 1.139818 -0.285121 -4.271307 -2.829690 5.393450 0.214111 -4.706551 -15.533090 2.263667 8.808044 -47.416285 -1.321137 6.745083 -5.139463 -23.570429 9.597347 -11.866127 -8.812925 -5.420719 5.274192 0.704582 -0.836008 63.928812 -6.614500 12.721597 -9.746057 28.091678 -0.093189 13.411904 3.269344 -10.967601 
0.268774 48.593124 -2.262126 106.610043 -48.123387 154.536274 2.099265 -1.512348 2.802372 -2.794078 -10.667253 17.178274 -9.264400 8.182921 15.674196 0.988565 0.074031 0.291214 -4.125805 -1.238218 -2.755595 -3.094857 1.929176 23.158084 8.392606 -3.540847 10.185614 -0.351480 -0.216739 0.320867 -1.703615 -2.351225 10.838411 -0.484253 -3.504084 2.778825 1.467948 -3.512229 1.227082 -0.715577 -3.794780 -3.011800 5.170007 0.640639 -5.044132 -14.720522 1.567688 8.441138 -46.338365 -2.432023 6.431552 -5.092112 -24.191484 8.836169 -11.607701 -8.758961 -5.724894 5.427723 0.608440 -0.743032 64.126609 -6.738027 12.681385 -9.957509 28.101182 -0.893087 13.210511 3.334682 -10.920516 
0.407097 48.643768 -2.754189 105.900749 -48.194577 154.662709 1.977917 -1.351836 3.262591 -3.028108 -10.685234 17.455998 -9.796604 8.096668 16.114328 1.062911 0.155386 0.226322 -4.186780 -1.095762 -2.603451 -3.328514 2.146225 24.110497 7.993834 -3.805185 9.987188 -0.343365 -0.258700 0.304044 -1.614168 -2.526682 10.667113 -0.426314 -3.698541 2.932588 1.464143 -3.480436 1.199136 -1.201088 -3.103464 -2.863431 4.684017 0.972313 -5.357700 -13.893933 1.004910 8.108942 -44.918592 -3.527735 5.843897 -4.879517 -25.445164 8.087863 -11.411557 -8.842874 -5.851347 5.503978 0.557200 -0.708708 64.165347 -6.918066 12.640870 -10.105116 27.923970 -1.381740 13.099671 3.413695 -10.960126 
